<?xml version="1.0" standalone="no"?>
<!DOCTYPE svg PUBLIC "-//W3C//DTD SVG 20010904//EN"
 "http://www.w3.org/TR/2001/REC-SVG-20010904/DTD/svg10.dtd">
<svg version="1.0" xmlns="http://www.w3.org/2000/svg"
 width="395.000000pt" height="182.000000pt" viewBox="0 0 395.000000 182.000000"
 preserveAspectRatio="xMidYMid meet">

<g transform="translate(0.000000,182.000000) scale(0.100000,-0.100000)"
fill="#000000" stroke="none">
<path d="M45 1788 c-3 -7 -4 -411 -3 -898 l3 -885 1943 -3 1942 -2 -2 897 -3
898 -1938 3 c-1545 2 -1939 0 -1942 -10z m3875 -888 l0 -870 -1935 0 -1935 0
0 870 0 870 1935 0 1935 0 0 -870z"/>
<path d="M500 1240 c-144 -31 -233 -170 -202 -317 31 -146 148 -218 327 -198
56 6 73 12 97 35 27 27 28 32 28 128 0 124 -6 132 -106 132 -79 0 -94 -9 -94
-57 0 -33 1 -34 37 -31 35 3 37 1 46 -35 7 -29 6 -43 -8 -63 -16 -25 -21 -26
-68 -21 -90 11 -157 86 -157 175 0 57 25 109 64 134 28 17 43 18 136 13 90 -6
108 -5 119 9 17 21 17 64 0 81 -18 18 -159 27 -219 15z"/>
<path d="M831 1224 c-20 -25 -21 -39 -21 -245 0 -206 1 -220 20 -239 11 -11
29 -20 40 -20 11 0 29 9 40 20 17 17 20 33 20 100 l0 80 43 0 42 0 30 -87 c37
-106 68 -137 113 -112 42 23 40 63 -6 144 l-39 69 29 54 c34 66 36 114 5 172
-35 67 -87 90 -203 90 -88 0 -94 -1 -113 -26z m207 -59 c30 -36 31 -121 1
-159 -17 -21 -29 -26 -65 -26 l-44 0 0 103 c0 57 3 107 8 111 14 15 77 -3 100
-29z"/>
<path d="M1439 1237 c-154 -43 -228 -215 -162 -379 49 -123 248 -177 371 -101
35 21 54 44 77 87 56 110 34 263 -49 333 -68 58 -160 81 -237 60z m121 -79
c51 -35 70 -80 70 -168 0 -41 -5 -92 -10 -112 -14 -47 -71 -98 -111 -98 -84 0
-130 71 -132 203 -1 92 12 127 63 171 39 32 77 33 120 4z"/>
<path d="M1820 1230 c-18 -18 -20 -33 -20 -168 0 -81 4 -162 10 -181 43 -151
231 -210 347 -108 64 56 73 89 73 279 0 161 -1 167 -22 182 -30 21 -54 20 -78
-4 -18 -18 -20 -33 -20 -181 l0 -161 -29 -29 c-39 -39 -80 -39 -123 0 l-33 29
0 160 c0 143 -2 162 -19 181 -24 26 -60 27 -86 1z"/>
<path d="M2322 1227 c-21 -22 -22 -31 -22 -243 0 -239 5 -264 56 -264 46 0 64
32 64 115 l0 75 64 0 c78 0 121 25 154 90 28 56 28 105 -1 160 -35 67 -87 90
-202 90 -83 0 -94 -2 -113 -23z m204 -48 c13 -14 20 -40 22 -87 3 -57 1 -71
-18 -94 -18 -23 -29 -28 -66 -28 l-44 0 0 115 0 115 43 0 c32 0 49 -6 63 -21z"/>
<path d="M2973 1227 c-15 -13 -40 -31 -55 -40 -31 -19 -37 -57 -13 -77 14 -12
30 -11 67 5 15 6 17 -9 18 -181 0 -124 4 -192 12 -201 7 -8 26 -13 47 -11 57
5 61 22 61 268 0 248 -3 260 -70 260 -25 0 -48 -8 -67 -23z"/>
<path d="M3256 1236 c-53 -20 -80 -48 -71 -75 8 -26 45 -28 80 -5 47 30 115
-6 115 -62 0 -12 -47 -88 -105 -170 -78 -109 -105 -156 -103 -174 l3 -25 142
-3 c118 -2 144 0 157 13 20 21 20 49 0 69 -11 11 -35 16 -80 16 -35 0 -64 3
-64 6 0 3 30 45 66 92 97 125 112 175 78 248 -32 67 -136 100 -218 70z"/>
</g>
</svg>
